<?xml version="1.0" encoding="UTF-8"?> <svg xmlns="http://www.w3.org/2000/svg" width="550" height="550" viewBox="0 0 550 550"> <path d="M355.981,3.882a3,3,0,0,1,5.037,1.593L382.086,116.5a3,3,0,0,0,3.316,2.418l106.847-13.23a3,3,0,0,1,3.117,4.18L450.184,213.078a3,3,0,0,0,1.224,3.787l94.209,55.551a3,3,0,0,1,0,5.168l-94.209,55.551a3,3,0,0,0-1.224,3.787l45.182,103.209a3,3,0,0,1-3.117,4.18L385.4,431.081a3,3,0,0,0-3.316,2.418L361.019,544.525a3,3,0,0,1-5.037,1.593l-78.892-76.59a3,3,0,0,0-4.179,0l-78.892,76.59a3,3,0,0,1-5.037-1.593L167.914,433.5a3,3,0,0,0-3.316-2.418L57.751,444.312a3,3,0,0,1-3.117-4.18L99.816,336.922a3,3,0,0,0-1.224-3.787L4.383,277.584a3,3,0,0,1,0-5.168l94.209-55.551a3,3,0,0,0,1.224-3.787L54.634,109.869a3,3,0,0,1,3.117-4.18L164.6,118.919a3,3,0,0,0,3.316-2.418L188.982,5.475a3,3,0,0,1,5.037-1.593l78.892,76.59a3,3,0,0,0,4.179,0Z" fill="#e36c58"></path> </svg> 