<?xml version="1.0" encoding="UTF-8"?> <svg xmlns="http://www.w3.org/2000/svg" width="22.857" height="27.741" viewBox="0 0 22.857 27.741"> <g transform="translate(16.107 1.117)"> <path d="M345.755,20.608a3.346,3.346,0,0,0-.8.1l.207.841a2.46,2.46,0,0,1,3.068,2.4c0,3.646-4.152,6.333-5.882,6.839l.243.832c2.2-.643,6.507-3.644,6.507-7.671A3.347,3.347,0,0,0,345.755,20.608Z" transform="translate(-342.348 -20.608)" fill="#f9f4f1"></path> </g> <g transform="translate(0 1.117)"> <path d="M45.934,23.951A2.459,2.459,0,0,1,49,21.551l.208-.842a3.342,3.342,0,0,0-4.142,3.243c0,4.027,4.309,7.028,6.506,7.671l.243-.832C50.086,30.284,45.934,27.6,45.934,23.951Z" transform="translate(-45.068 -20.609)" fill="#f9f4f1"></path> </g> <g transform="translate(9.492 16.135)"> <path d="M223.692,297.8h-3.006a.433.433,0,0,0-.433.433v1.645a.434.434,0,0,0,.433.433.442.442,0,0,0,.091-.01,6.961,6.961,0,0,1,2.824,0,.433.433,0,0,0,.525-.424v-1.645A.433.433,0,0,0,223.692,297.8Zm-.433,1.562a7.964,7.964,0,0,0-2.14,0v-.7h2.14Z" transform="translate(-220.252 -297.8)" fill="#f9f4f1"></path> </g> <g transform="translate(5.145 25.273)"> <path d="M152.154,466.448h-11.7a.433.433,0,0,0-.433.433v1.6a.433.433,0,0,0,.433.433h11.7a.433.433,0,0,0,.433-.433v-1.6A.433.433,0,0,0,152.154,466.448Zm-.433,1.6H140.887v-.734h10.834Z" transform="translate(-140.02 -466.448)" fill="#f9f4f1"></path> </g> <g transform="translate(5.895 19.166)"> <path d="M164.5,353.736H154.3a.433.433,0,0,0-.433.433v6.107a.433.433,0,0,0,.433.434h10.2a.434.434,0,0,0,.433-.434v-6.107A.433.433,0,0,0,164.5,353.736Zm-.433,6.107h-9.333V354.6h9.333Z" transform="translate(-153.868 -353.736)" fill="#f9f4f1"></path> </g> <g transform="translate(7.629 20.899)"> <path d="M193.034,385.728H186.3a.433.433,0,0,0-.433.433V388.8a.433.433,0,0,0,.433.433h6.733a.434.434,0,0,0,.433-.433v-2.639A.433.433,0,0,0,193.034,385.728Zm-.433,2.639h-5.866V386.6H192.6Z" transform="translate(-185.868 -385.728)" fill="#f9f4f1"></path> </g> <g transform="translate(3.577)"> <path d="M126.575.218a.726.726,0,0,0-.52-.218H111.817a.735.735,0,0,0-.733.739c0,.3.015.586.028.916.011.267.026.531.044.795a23.217,23.217,0,0,0,2.069,8.483c.167.344.348.681.537,1a8.315,8.315,0,0,0,2.958,3.146.433.433,0,0,0,.371.025c.1,0,.214,0,.342,0h3.356a.436.436,0,0,0,.364-.028,8.315,8.315,0,0,0,2.958-3.146c.187-.319.368-.656.536-1a23.207,23.207,0,0,0,2.069-8.483c.017-.263.033-.527.043-.8.013-.3.025-.606.028-.913A.725.725,0,0,0,126.575.218Zm-.683,1.4c-.011.26-.025.516-.042.772a22.332,22.332,0,0,1-1.984,8.162c-.158.324-.327.641-.5.941a7.792,7.792,0,0,1-2.493,2.746H117a7.786,7.786,0,0,1-2.493-2.746c-.177-.3-.346-.616-.5-.94a22.348,22.348,0,0,1-1.984-8.162c-.017-.255-.032-.512-.044-.811-.01-.237-.02-.474-.024-.713h13.963C125.912,1.12,125.9,1.369,125.892,1.619Z" transform="translate(-111.084 0)" fill="#f9f4f1"></path> </g> <g transform="translate(12.807 1.877)"> <path d="M285.273,34.64c-.007.136-.015.264-.023.391a19.807,19.807,0,0,1-1.721,7.128c-.13.267-.271.531-.42.785a6.37,6.37,0,0,1-1.664,1.958l.5.707a7.229,7.229,0,0,0,1.908-2.225c.16-.274.313-.558.453-.845a20.705,20.705,0,0,0,1.807-7.45c.009-.132.017-.264.024-.4Z" transform="translate(-281.444 -34.64)" fill="#f9f4f1"></path> </g> <g transform="translate(9.104 14.24)"> <path d="M216.92,262.824h-3.026c-.729,0-.8,1.414-.8,1.429s.085,1.334.821,1.334h3.026c.717,0,.8-1.32.8-1.334S217.669,262.824,216.92,262.824Zm-.158,1.9h-2.69a1.894,1.894,0,0,1-.113-.466,2.413,2.413,0,0,1,.126-.562h2.664a2.4,2.4,0,0,1,.126.561A1.866,1.866,0,0,1,216.762,264.72Z" transform="translate(-213.092 -262.824)" fill="#f9f4f1"></path> </g> <g transform="translate(7.54 17.626)"> <path d="M189.719,325.476a7.842,7.842,0,0,0-3.189,0c-1.436.311-2.293.987-2.293,1.809a.433.433,0,0,0,.433.433h6.909a.433.433,0,0,0,.433-.433C192.012,326.463,191.155,325.787,189.719,325.476Zm-4.31,1.376a3.426,3.426,0,0,1,1.3-.528,6.961,6.961,0,0,1,2.823,0,3.425,3.425,0,0,1,1.3.528Z" transform="translate(-184.236 -325.312)" fill="#f9f4f1"></path> </g> </svg> 