<?xml version="1.0" encoding="UTF-8"?> <svg xmlns="http://www.w3.org/2000/svg" width="82.999" height="80" viewBox="0 0 82.999 80"> <g transform="translate(-990 -2880)"> <path d="M-5224-843.117h0v-1A37.184,37.184,0,0,0-5190-881a37.043,37.043,0,0,0-37-37,37.161,37.161,0,0,0-7,.664v-1.022a38.37,38.37,0,0,1,7-.641,37.77,37.77,0,0,1,14.792,2.985,37.89,37.89,0,0,1,12.078,8.144,37.882,37.882,0,0,1,8.144,12.078A37.778,37.778,0,0,1-5189-881a37.774,37.774,0,0,1-2.985,14.791,37.863,37.863,0,0,1-8.144,12.078,37.864,37.864,0,0,1-12.078,8.144,37.7,37.7,0,0,1-11.792,2.87Z" transform="translate(6262 3799)" fill="#fff"></path> <g transform="translate(973 2877)"> <path d="M32.369,1A5.255,5.255,0,0,0,30.475.982c-2.5.346-5.008,2.11-5.694,4a10.63,10.63,0,0,0,1.8-.058A7.374,7.374,0,0,0,32.369,1ZM21.537,12.346a10.741,10.741,0,0,0-6.216,2.94,8.383,8.383,0,0,0,3.424.094,12.47,12.47,0,0,0,6.692-2.912A11.319,11.319,0,0,0,21.537,12.346Zm-3.06,5.912a11.2,11.2,0,0,0-7.612,5.216,7.275,7.275,0,0,0,1.512-.022,10.492,10.492,0,0,0,7.5-5.294C19.415,18.221,18.937,18.2,18.477,18.257Zm-9.254-6.01c-1.882,2.816-1.748,7.91.216,10.476C11.03,19.853,10.856,14.484,9.224,12.248Zm5.55-7.772c-1.922,2.536-2.182,7.494-.508,10.01C15.908,11.986,16.142,6.842,14.774,4.476ZM26.465,6.932a10.076,10.076,0,0,0-5.938,2.9,7.076,7.076,0,0,0,2.762.094,13.033,13.033,0,0,0,6.428-2.784A6.69,6.69,0,0,0,26.465,6.932ZM21.817,0c-2.2,1.916-3.394,6.244-2.368,8.848C21.351,6.882,22.621,2.352,21.817,0ZM16.394,24.415h0c-3.622.5-7.21,4.686-8.072,8.024h0C11.836,31.859,15.752,28,16.394,24.415ZM3.318,21.581c-1.024,3.548.716,8.61,3.518,10.4C7.53,28.763,5.736,23.331,3.318,21.581ZM8.362,43.695c3.382-1.512,6.262-6.732,5.908-10.658C10.4,35.179,8.242,40.115,8.362,43.695Zm6.478-2.406c-2.966,2.492-4.3,8.636-3.33,12.192C14.586,51.069,16.218,45.073,14.84,41.289Zm2.552,8.168a12.94,12.94,0,0,0-.258,12.524C19.453,58.92,19.655,52.831,17.392,49.457Zm7.586,19.3c1.342-3.3-.1-8.976-3.01-11.5A12.95,12.95,0,0,0,24.977,68.752Zm9.606-2.368a11.347,11.347,0,0,0,8.032,8.074C41.8,70.69,38.179,67.022,34.583,66.384Zm-1.4,6.254c.38-3.458-2.052-8.042-5.12-9.61A11.253,11.253,0,0,0,33.179,72.638ZM.836,33.755c-.246,3.722,2.712,8.712,6.1,9.948C6.85,40.307,3.668,35.067.836,33.755ZM10.05,53.87c-1.2-3.9-6.39-8.582-10.05-9.02C.964,49.069,5.94,53.592,10.05,53.87Zm13.754,16A15.183,15.183,0,0,0,13.37,66.948a8.54,8.54,0,0,0-1.648.422c2.112,2.262,6.364,3.566,9.89,3.082A8.78,8.78,0,0,0,23.8,69.87Zm7.5,9.754a9.819,9.819,0,0,0,4.3.258c2.974-.41,5.8-1.848,7.068-3.628a9.416,9.416,0,0,0-3.9-.132C35.627,76.654,32.593,78.022,31.3,79.624ZM15.722,62.74c-2.068-3.308-7.97-6.282-11.5-5.792l-.094.012c1.906,3.528,7.314,6.376,11.216,5.836C15.538,62.764,15.63,62.752,15.722,62.74ZM25.537,73.5a10,10,0,0,0-5.3,2.058A11.124,11.124,0,0,0,27,76.518a9.952,9.952,0,0,0,5.542-2.368A13.726,13.726,0,0,0,25.537,73.5Z" transform="translate(17 3)" fill="#f9f4f1"></path> </g> <path d="M12.246,0V-1.04H3.978L9.542-7.2c.494-.546,1.144-1.326,1.534-1.872a5.936,5.936,0,0,0,1.248-3.562,4.909,4.909,0,0,0-5.148-4.94,5.146,5.146,0,0,0-3.848,1.508,5.222,5.222,0,0,0-1.378,3.64H3.094a4.238,4.238,0,0,1,1.014-2.834A3.8,3.8,0,0,1,7.1-16.536a3.847,3.847,0,0,1,4.03,3.9,5.378,5.378,0,0,1-1.014,2.964,21.039,21.039,0,0,1-1.9,2.34L1.56,0Z" transform="translate(1029 2927)" fill="#f9f4f1"></path> </g> </svg> 