<?xml version="1.0" encoding="UTF-8"?> <svg xmlns="http://www.w3.org/2000/svg" width="30" height="30" viewBox="0 0 30 30"> <g fill="none"> <path d="M19.9.954a1,1,0,0,1,1.574.652l.84,5.254a1,1,0,0,0,.83.83l5.254.84a1,1,0,0,1,.652,1.574l-3.121,4.309a1,1,0,0,0,0,1.173L29.046,19.9a1,1,0,0,1-.652,1.574l-5.254.84a1,1,0,0,0-.83.83l-.84,5.254a1,1,0,0,1-1.574.652l-4.309-3.121a1,1,0,0,0-1.173,0L10.1,29.046a1,1,0,0,1-1.574-.652L7.69,23.14a1,1,0,0,0-.83-.83l-5.254-.84A1,1,0,0,1,.954,19.9l3.121-4.309a1,1,0,0,0,0-1.173L.954,10.1A1,1,0,0,1,1.606,8.53L6.86,7.69a1,1,0,0,0,.83-.83l.84-5.254A1,1,0,0,1,10.1.954l4.309,3.121a1,1,0,0,0,1.173,0Z" stroke="none"></path> <path d="M 20.48233413696289 1.764070510864258 L 16.17316055297852 4.885049819946289 C 15.82971954345703 5.1337890625 15.42405033111572 5.265270233154297 15 5.265270233154297 C 14.57594966888428 5.265270233154297 14.17028045654297 5.1337890625 13.82683944702148 4.885049819946289 L 9.517374038696289 1.764184951782227 L 8.677200317382813 7.018110275268555 C 8.540380477905273 7.873649597167969 7.873649597167969 8.540380477905273 7.018110275268555 8.677200317382813 L 1.764066696166992 9.517658233642578 L 4.885049819946289 13.82683944702148 C 5.393270492553711 14.52853965759277 5.393270492553711 15.47146034240723 4.885049819946289 16.17316055297852 L 1.764181137084961 20.48261642456055 L 7.018119812011719 21.32279968261719 C 7.873649597167969 21.45962142944336 8.540380477905273 22.12635040283203 8.677200317382813 22.98188018798828 L 9.517650604248047 28.23593330383301 L 13.82683944702148 25.11495018005371 C 14.17028045654297 24.8662109375 14.57594966888428 24.7347297668457 15 24.7347297668457 C 15.42403984069824 24.7347297668457 15.82971000671387 24.8662109375 16.17314910888672 25.11495018005371 L 20.48261642456055 28.23581504821777 L 21.32279968261719 22.98188972473145 C 21.45962142944336 22.12635040283203 22.12635040283203 21.45962142944336 22.98188972473145 21.32279968261719 L 28.23593330383301 20.48234939575195 L 25.11495018005371 16.17316055297852 C 24.60672950744629 15.47146034240723 24.60672950744629 14.52853965759277 25.11495018005371 13.82683944702148 L 28.23581504821777 9.517385482788086 L 22.98188972473145 8.677200317382813 C 22.12635040283203 8.540380477905273 21.45962142944336 7.873649597167969 21.32279968261719 7.018110275268555 L 20.48233413696289 1.764070510864258 M 9.520524978637695 0.7629032135009766 C 9.719751358032227 0.7628822326660156 9.923011779785156 0.8229236602783203 10.10400009155273 0.954010009765625 L 14.41341972351074 4.075159072875977 C 14.58841037750244 4.201900482177734 14.79420471191406 4.265270233154297 15 4.265270233154297 C 15.20579528808594 4.265270233154297 15.41158962249756 4.201900482177734 15.58658027648926 4.075159072875977 L 19.8959903717041 0.954010009765625 C 20.07694244384766 0.8229503631591797 20.28027725219727 0.7629032135009766 20.47946739196777 0.7629032135009766 C 20.9448127746582 0.7629032135009766 21.38759994506836 1.090574264526367 21.47002029418945 1.605989456176758 L 22.31024932861328 6.860200881958008 C 22.37849044799805 7.286909103393555 22.71308898925781 7.621509552001953 23.13980102539063 7.689750671386719 L 28.39401054382324 8.529979705810547 C 29.13005065917969 8.647680282592773 29.48321914672852 9.500310897827148 29.04598999023438 10.1040096282959 L 25.92483901977539 14.41341972351074 C 25.67136001586914 14.76340007781982 25.67136001586914 15.23659992218018 25.92483901977539 15.58658027648926 L 29.04598999023438 19.89599990844727 C 29.48321914672852 20.49969100952148 29.13005065917969 21.35231971740723 28.39401054382324 21.47002983093262 L 23.13980102539063 22.31024932861328 C 22.71308898925781 22.37849044799805 22.37849044799805 22.71308898925781 22.31024932861328 23.13980102539063 L 21.47002029418945 28.39401054382324 C 21.38760757446289 28.90938186645508 20.94476699829102 29.23709297180176 20.47946548461914 29.23709297180176 C 20.28023910522461 29.23709297180176 20.07697868347168 29.17707443237305 19.8959903717041 29.04598999023438 L 15.58656978607178 25.92483901977539 C 15.41158485412598 25.79809951782227 15.20579242706299 25.7347297668457 14.99999904632568 25.7347297668457 C 14.79420471191406 25.7347297668457 14.58841037750244 25.79809951782227 14.41341972351074 25.92483901977539 L 10.10400009155273 29.04598999023438 C 9.92304801940918 29.17704772949219 9.71971321105957 29.23709297180176 9.520524978637695 29.23709297180176 C 9.055183410644531 29.23709297180176 8.612396240234375 28.90942764282227 8.529970169067383 28.39401054382324 L 7.689750671386719 23.13978958129883 C 7.621509552001953 22.71308898925781 7.286899566650391 22.37849044799805 6.860200881958008 22.31024932861328 L 1.605989456176758 21.47002029418945 C 0.8699493408203125 21.35231971740723 0.5167694091796875 20.49967956542969 0.954010009765625 19.8959903717041 L 4.075159072875977 15.58658027648926 C 4.328639984130859 15.23659992218018 4.328639984130859 14.76340007781982 4.075159072875977 14.41341972351074 L 0.954010009765625 10.1040096282959 C 0.5167808532714844 9.500310897827148 0.8699493408203125 8.647680282592773 1.605989456176758 8.529979705810547 L 6.860200881958008 7.689750671386719 C 7.286909103393555 7.621509552001953 7.621509552001953 7.286909103393555 7.689750671386719 6.860200881958008 L 8.529970169067383 1.605989456176758 C 8.612390518188477 1.090618133544922 9.055227279663086 0.7629528045654297 9.520524978637695 0.7629032135009766 Z" stroke="none" fill="#e36c58"></path> </g> </svg> 