<?xml version="1.0" encoding="UTF-8"?> <svg xmlns="http://www.w3.org/2000/svg" width="29" height="30" viewBox="0 0 29 30"> <path d="M19.173,1a1,1,0,0,1,1.588.648l.806,5.213a1,1,0,0,0,.825.834l5.042.834a1,1,0,0,1,.656,1.56l-3.038,4.339a1,1,0,0,0,0,1.147l3.038,4.339a1,1,0,0,1-.656,1.56l-5.042.834a1,1,0,0,0-.825.834l-.806,5.213A1,1,0,0,1,19.173,29L15.1,25.949a1,1,0,0,0-1.2,0L9.827,29a1,1,0,0,1-1.588-.648L7.433,23.14a1,1,0,0,0-.825-.834l-5.042-.834a1,1,0,0,1-.656-1.56l3.038-4.339a1,1,0,0,0,0-1.147L.911,10.088a1,1,0,0,1,.656-1.56l5.042-.834a1,1,0,0,0,.825-.834l.806-5.213A1,1,0,0,1,9.827,1L13.9,4.051a1,1,0,0,0,1.2,0Z" fill="#e36c58"></path> </svg> 